<?xml version="1.0" encoding="UTF-8"?>
<svg id="Capa_7" data-name="Capa 7" xmlns="http://www.w3.org/2000/svg" viewBox="0 0 1080 1079.43">
  <defs>
    <style>
      .cls-1 {
        opacity: .6;
      }

      .cls-1, .cls-2, .cls-3, .cls-4, .cls-5, .cls-6, .cls-7 {
        fill: #fff;
      }

      .cls-1, .cls-2, .cls-3, .cls-6, .cls-8, .cls-9, .cls-7 {
        isolation: isolate;
      }

      .cls-1, .cls-2, .cls-4, .cls-5, .cls-10, .cls-6, .cls-7 {
        stroke-width: 0px;
      }

      .cls-2 {
        opacity: .5;
      }

      .cls-3 {
        font-family: Arial-BoldMT, Arial;
        font-size: 22px;
        font-weight: 700;
      }

      .cls-5 {
        opacity: .6;
      }

      .cls-10 {
        fill: #1a6bdc;
      }

      .cls-6 {
        opacity: .85;
      }

      .cls-8 {
        opacity: .65;
      }

      .cls-9, .cls-7 {
        opacity: .97;
      }
    </style>
  </defs>
  <rect class="cls-10" width="1080" height="1080"/>
  <rect class="cls-7" x="171.82" y="182.79" width="343.64" height="343.64" rx="85.91" ry="85.91"/>
  <path class="cls-10" d="M455,303.97h-223c-6.08,0-11-4.92-11-11s4.92-11,11-11h223c6.08,0,11,4.92,11,11s-4.92,11-11,11Z"/>
  <path class="cls-10" d="M455,351.97h-223c-6.08,0-11-4.92-11-11s4.92-11,11-11h223c6.08,0,11,4.92,11,11s-4.92,11-11,11Z"/>
  <path class="cls-10" d="M380,399.97h-148c-6.08,0-11-4.92-11-11s4.92-11,11-11h148c6.08,0,11,4.92,11,11s-4.92,11-11,11Z"/>
  <rect class="cls-10" x="232" y="425.97" width="80" height="36" rx="10" ry="10"/>
  <text class="cls-3" transform="translate(250 450.97)"><tspan x="0" y="0">PDF</tspan></text>
  <g class="cls-8">
    <path class="cls-4" d="M822.27,539.43h-171.82c-54.54,0-98.91-44.37-98.91-98.91v-171.82c0-54.54,44.37-98.91,98.91-98.91h171.82c54.54,0,98.91,44.37,98.91,98.91v171.82c0,54.54-44.37,98.91-98.91,98.91ZM650.45,195.79c-40.2,0-72.91,32.71-72.91,72.91v171.82c0,40.2,32.71,72.91,72.91,72.91h171.82c40.2,0,72.91-32.71,72.91-72.91v-171.82c0-40.2-32.71-72.91-72.91-72.91h-171.82Z"/>
  </g>
  <rect class="cls-6" x="692" y="232.97" width="42" height="180" rx="10" ry="10" transform="translate(-19.54 598.76) rotate(-45)"/>
  <polygon class="cls-6" points="648 398.97 672 374.97 696 398.97 648 398.97"/>
  <rect class="cls-2" x="726" y="231.97" width="42" height="30" rx="8" ry="8" transform="translate(44.16 600.54) rotate(-45)"/>
  <g class="cls-8">
    <path class="cls-4" d="M429.55,932.15h-171.82c-54.54,0-98.91-44.37-98.91-98.91v-171.82c0-54.54,44.37-98.91,98.91-98.91h171.82c54.54,0,98.91,44.37,98.91,98.91v171.82c0,54.54-44.37,98.91-98.91,98.91ZM257.73,588.51c-40.2,0-72.91,32.71-72.91,72.91v171.82c0,40.2,32.71,72.91,72.91,72.91h171.82c40.2,0,72.91-32.71,72.91-72.91v-171.82c0-40.2-32.71-72.91-72.91-72.91h-171.82Z"/>
  </g>
  <g>
    <path class="cls-5" d="M423.54,717.62l-70-70c-.33-.33-.67-.64-1.03-.93-.15-.13-.32-.24-.47-.35-.21-.16-.41-.32-.63-.46-.19-.13-.39-.24-.59-.36-.19-.12-.39-.24-.59-.35-.2-.11-.41-.2-.61-.29-.21-.1-.42-.2-.63-.29-.2-.08-.4-.15-.6-.22-.23-.08-.46-.17-.7-.24-.2-.06-.4-.1-.6-.15-.24-.06-.48-.13-.73-.18-.22-.04-.45-.07-.68-.1-.23-.03-.45-.08-.68-.1-.4-.04-.8-.06-1.2-.06-.06,0-.12,0-.18,0s-.12,0-.18,0c-.4,0-.8.02-1.2.06-.23.02-.45.06-.68.1-.23.03-.45.06-.68.1-.25.05-.49.12-.73.18-.2.05-.4.09-.6.15-.24.07-.47.16-.7.24-.2.07-.4.14-.6.22-.22.09-.42.19-.63.29-.2.1-.41.19-.61.29-.2.11-.39.23-.59.35-.2.12-.4.23-.59.36-.22.14-.42.31-.63.46-.16.12-.32.23-.47.35-.36.29-.7.6-1.03.93l-70,70c-5.47,5.47-5.47,14.33,0,19.8,5.47,5.47,14.33,5.47,19.8,0l46.1-46.1v106.2c0,7.73,6.27,14,14,14s14-6.27,14-14v-106.2l46.1,46.1c2.73,2.73,6.32,4.1,9.9,4.1s7.17-1.37,9.9-4.1c5.47-5.47,5.47-14.33,0-19.8Z"/>
    <path class="cls-1" d="M270.64,825.14h146c7.18,0,13,5.82,13,13h0c0,7.18-5.82,13-13,13h-146c-7.18,0-13-5.82-13-13h0c0-7.18,5.82-13,13-13Z"/>
  </g>
  <g>
    <g class="cls-9">
      <rect class="cls-4" x="680.62" y="670.41" width="147.27" height="147.27" rx="36.82" ry="36.82"/>
    </g>
    <path class="cls-10" d="M742.8,785.59c-2.91,0-5.71-1.15-7.78-3.22l-32-32c-4.3-4.3-4.3-11.26,0-15.56,4.3-4.29,11.26-4.29,15.56,0l23.38,23.38,44.31-54.53c3.83-4.71,10.76-5.43,15.47-1.6s5.43,10.76,1.6,15.47l-52,64c-1.96,2.42-4.86,3.89-7.97,4.05-.19,0-.38.01-.57.01Z"/>
  </g>
</svg>