<?xml version="1.0" encoding="UTF-8"?>
<svg id="Capa_2" data-name="Capa 2" xmlns="http://www.w3.org/2000/svg" viewBox="0 0 1078.36 1079.43">
  <defs>
    <style>
      .cls-1 {
        font-family: Arial-BoldMT, Arial;
        font-size: 22px;
        font-weight: 700;
      }

      .cls-1, .cls-2, .cls-3, .cls-4, .cls-5, .cls-6 {
        fill: #1a6bdc;
      }

      .cls-7, .cls-6 {
        opacity: .6;
      }

      .cls-2 {
        opacity: .5;
      }

      .cls-2, .cls-8, .cls-3, .cls-4, .cls-5, .cls-6 {
        stroke-width: 0px;
      }

      .cls-8 {
        fill: #fff;
      }

      .cls-9 {
        opacity: .97;
      }

      .cls-9, .cls-4 {
        isolation: isolate;
      }

      .cls-4 {
        opacity: .6;
      }

      .cls-5 {
        opacity: .85;
      }
    </style>
  </defs>
  <rect class="cls-8" width="1078.36" height="1079.43" rx="184" ry="184"/>
  <rect class="cls-3" x="172.03" y="171.25" width="343.64" height="343.64" rx="85.91" ry="85.91"/>
  <g class="cls-9">
    <path class="cls-8" d="M455.21,292.43h-223c-6.08,0-11-4.92-11-11s4.92-11,11-11h223c6.08,0,11,4.92,11,11s-4.92,11-11,11Z"/>
  </g>
  <g class="cls-9">
    <path class="cls-8" d="M455.21,340.43h-223c-6.08,0-11-4.92-11-11s4.92-11,11-11h223c6.08,0,11,4.92,11,11s-4.92,11-11,11Z"/>
  </g>
  <g class="cls-9">
    <path class="cls-8" d="M380.21,388.43h-148c-6.08,0-11-4.92-11-11s4.92-11,11-11h148c6.08,0,11,4.92,11,11s-4.92,11-11,11Z"/>
  </g>
  <rect class="cls-8" x="232.21" y="414.43" width="80" height="36" rx="10" ry="10"/>
  <text class="cls-1" transform="translate(250.21 439.43)"><tspan x="0" y="0">PDF</tspan></text>
  <g class="cls-7">
    <path class="cls-3" d="M822.48,527.89h-171.82c-54.54,0-98.91-44.37-98.91-98.91v-171.82c0-54.54,44.37-98.91,98.91-98.91h171.82c54.54,0,98.91,44.37,98.91,98.91v171.82c0,54.54-44.37,98.91-98.91,98.91ZM650.66,184.25c-40.2,0-72.91,32.71-72.91,72.91v171.82c0,40.2,32.71,72.91,72.91,72.91h171.82c40.2,0,72.91-32.71,72.91-72.91v-171.82c0-40.2-32.71-72.91-72.91-72.91h-171.82Z"/>
  </g>
  <rect class="cls-5" x="692.21" y="221.43" width="42" height="180" rx="10" ry="10" transform="translate(-11.32 595.53) rotate(-45)"/>
  <polygon class="cls-5" points="648.21 387.43 672.21 363.43 696.21 387.43 648.21 387.43"/>
  <rect class="cls-2" x="726.21" y="220.43" width="42" height="30" rx="8" ry="8" transform="translate(52.38 597.32) rotate(-45)"/>
  <g class="cls-7">
    <path class="cls-3" d="M429.76,920.61h-171.82c-54.54,0-98.91-44.37-98.91-98.91v-171.82c0-54.54,44.37-98.91,98.91-98.91h171.82c54.54,0,98.91,44.37,98.91,98.91v171.82c0,54.54-44.37,98.91-98.91,98.91ZM257.94,576.97c-40.2,0-72.91,32.71-72.91,72.91v171.82c0,40.2,32.71,72.91,72.91,72.91h171.82c40.2,0,72.91-32.71,72.91-72.91v-171.82c0-40.2-32.71-72.91-72.91-72.91h-171.82Z"/>
  </g>
  <g>
    <path class="cls-6" d="M423.75,706.08l-70-70c-.33-.33-.67-.64-1.03-.93-.15-.13-.32-.24-.47-.35-.21-.16-.41-.32-.63-.46-.19-.13-.39-.24-.59-.36-.19-.12-.39-.24-.59-.35-.2-.11-.41-.2-.61-.29-.21-.1-.42-.2-.63-.29-.2-.08-.4-.15-.6-.22-.23-.08-.46-.17-.7-.24-.2-.06-.4-.1-.6-.15-.24-.06-.48-.13-.73-.18-.22-.04-.45-.07-.68-.1-.23-.03-.45-.08-.68-.1-.4-.04-.8-.06-1.2-.06-.06,0-.12,0-.18,0s-.12,0-.18,0c-.4,0-.8.02-1.2.06-.23.02-.45.06-.68.1-.23.03-.45.06-.68.1-.25.05-.49.12-.73.18-.2.05-.4.09-.6.15-.24.07-.47.16-.7.24-.2.07-.4.14-.6.22-.22.09-.42.19-.63.29-.2.1-.41.19-.61.29-.2.11-.39.23-.59.35-.2.12-.4.23-.59.36-.22.14-.42.31-.63.46-.16.12-.32.23-.47.35-.36.29-.7.6-1.03.93l-70,70c-5.47,5.47-5.47,14.33,0,19.8,5.47,5.47,14.33,5.47,19.8,0l46.1-46.1v106.2c0,7.73,6.27,14,14,14s14-6.27,14-14v-106.2l46.1,46.1c2.73,2.73,6.32,4.1,9.9,4.1s7.17-1.37,9.9-4.1c5.47-5.47,5.47-14.33,0-19.8Z"/>
    <path class="cls-4" d="M270.85,813.6h146c7.18,0,13,5.82,13,13h0c0,7.18-5.82,13-13,13h-146c-7.18,0-13-5.82-13-13h0c0-7.18,5.82-13,13-13Z"/>
  </g>
  <g>
    <rect class="cls-3" x="680.84" y="658.87" width="147.27" height="147.27" rx="36.82" ry="36.82"/>
    <g class="cls-9">
      <path class="cls-8" d="M743.01,774.05c-2.91,0-5.71-1.15-7.78-3.22l-32-32c-4.3-4.3-4.3-11.26,0-15.56,4.3-4.29,11.26-4.29,15.56,0l23.38,23.38,44.31-54.53c3.83-4.71,10.76-5.43,15.47-1.6,4.71,3.83,5.43,10.76,1.6,15.47l-52,64c-1.96,2.42-4.86,3.89-7.97,4.05-.19,0-.38.01-.57.01Z"/>
    </g>
  </g>
</svg>