<?xml version="1.0" encoding="utf-8"?>
<!-- Generator: Adobe Illustrator 28.2.0, SVG Export Plug-In . SVG Version: 6.00 Build 0)  -->
<svg version="1.1" xmlns="http://www.w3.org/2000/svg" xmlns:xlink="http://www.w3.org/1999/xlink" x="0px" y="0px"
	 viewBox="0 0 1080 1080" style="enable-background:new 0 0 1080 1080;" xml:space="preserve">
<style type="text/css">
	.st0{fill:#1A6BDC;}
	.st1{opacity:0.97;fill:#FFFFFF;enable-background:new    ;}
	.st2{fill:#FFFFFF;}
	.st3{font-family:'Arial-BoldMT';}
	.st4{font-size:22px;}
	.st5{opacity:0.65;enable-background:new    ;}
	.st6{opacity:0.85;fill:#FFFFFF;enable-background:new    ;}
	.st7{opacity:0.5;fill:#FFFFFF;enable-background:new    ;}
	.st8{opacity:0.6;fill:#FFFFFF;}
	.st9{opacity:0.6;fill:#FFFFFF;enable-background:new    ;}
	.st10{opacity:0.97;enable-background:new    ;}
	.st11{opacity:0.6;}
	.st12{opacity:0.85;fill:#1A6BDC;}
	.st13{opacity:0.5;fill:#1A6BDC;}
	.st14{opacity:0.6;fill:#1A6BDC;}
	.st15{opacity:0.6;fill:#1A6BDC;enable-background:new    ;}
</style>
<g id="Capa_1">
	<path class="st0" d="M894.1,1080H183.8c-101.6,0-184-82.4-184-184V184.6c0-101.6,82.4-184,184-184h710.4c101.6,0,184,82.4,184,184
		V896C1078.1,997.6,995.8,1080,894.1,1080z"/>
	<path class="st1" d="M257.7,171.8h171.8c47.4,0,85.9,38.5,85.9,85.9v171.8c0,47.4-38.5,85.9-85.9,85.9H257.7
		c-47.4,0-85.9-38.5-85.9-85.9V257.7C171.8,210.3,210.3,171.8,257.7,171.8z"/>
	<g>
		<path class="st0" d="M455,293H232c-6.1,0-11-4.9-11-11s4.9-11,11-11h223c6.1,0,11,4.9,11,11S461.1,293,455,293z"/>
	</g>
	<g>
		<path class="st0" d="M455,341H232c-6.1,0-11-4.9-11-11s4.9-11,11-11h223c6.1,0,11,4.9,11,11S461.1,341,455,341z"/>
	</g>
	<g>
		<path class="st0" d="M380,389H232c-6.1,0-11-4.9-11-11s4.9-11,11-11h148c6.1,0,11,4.9,11,11S386.1,389,380,389z"/>
	</g>
	<path class="st0" d="M242,415h60c5.5,0,10,4.5,10,10v16c0,5.5-4.5,10-10,10h-60c-5.5,0-10-4.5-10-10v-16
		C232,419.5,236.5,415,242,415z"/>
	<text transform="matrix(1 0 0 1 250 440)" class="st2 st3 st4">PDF</text>
	<g class="st5">
		<path class="st2" d="M822.3,528.5H650.5c-54.5,0-98.9-44.4-98.9-98.9V257.7c0-54.5,44.4-98.9,98.9-98.9h171.8
			c54.5,0,98.9,44.4,98.9,98.9v171.8C921.2,484.1,876.8,528.5,822.3,528.5z M650.5,184.8c-40.2,0-72.9,32.7-72.9,72.9v171.8
			c0,40.2,32.7,72.9,72.9,72.9h171.8c40.2,0,72.9-32.7,72.9-72.9V257.7c0-40.2-32.7-72.9-72.9-72.9H650.5z"/>
	</g>
	<path class="st6" d="M641.6,256.1l15.6-15.6c3.9-3.9,10.2-3.9,14.1,0l113.1,113.1c3.9,3.9,3.9,10.2,0,14.1l-15.6,15.6
		c-3.9,3.9-10.2,3.9-14.1,0L641.6,270.3C637.7,266.4,637.7,260,641.6,256.1z"/>
	<polygon class="st6" points="648,388 672,364 696,388 	"/>
	<path class="st7" d="M727.2,234.6l18.4-18.4c3.1-3.1,8.2-3.1,11.3,0l9.9,9.9c3.1,3.1,3.1,8.2,0,11.3l-18.4,18.4
		c-3.1,3.1-8.2,3.1-11.3,0l-9.9-9.9C724.1,242.8,724.1,237.7,727.2,234.6z"/>
	<g class="st5">
		<path class="st2" d="M429.5,921.2H257.7c-54.5,0-98.9-44.4-98.9-98.9V650.5c0-54.5,44.4-98.9,98.9-98.9h171.8
			c54.5,0,98.9,44.4,98.9,98.9v171.8C528.5,876.8,484.1,921.2,429.5,921.2z M257.7,577.5c-40.2,0-72.9,32.7-72.9,72.9v171.8
			c0,40.2,32.7,72.9,72.9,72.9h171.8c40.2,0,72.9-32.7,72.9-72.9V650.5c0-40.2-32.7-72.9-72.9-72.9H257.7z"/>
	</g>
	<g>
		<path class="st8" d="M423.5,706.7l-70-70c-0.3-0.3-0.7-0.6-1-0.9c-0.2-0.1-0.3-0.2-0.5-0.4c-0.2-0.2-0.4-0.3-0.6-0.5
			c-0.2-0.1-0.4-0.2-0.6-0.4c-0.2-0.1-0.4-0.2-0.6-0.3c-0.2-0.1-0.4-0.2-0.6-0.3c-0.2-0.1-0.4-0.2-0.6-0.3c-0.2-0.1-0.4-0.1-0.6-0.2
			c-0.2-0.1-0.5-0.2-0.7-0.2c-0.2-0.1-0.4-0.1-0.6-0.2c-0.2-0.1-0.5-0.1-0.7-0.2c-0.2,0-0.5-0.1-0.7-0.1c-0.2,0-0.4-0.1-0.7-0.1
			c-0.4,0-0.8-0.1-1.2-0.1c-0.1,0-0.1,0-0.2,0s-0.1,0-0.2,0c-0.4,0-0.8,0-1.2,0.1c-0.2,0-0.5,0.1-0.7,0.1c-0.2,0-0.5,0.1-0.7,0.1
			c-0.2,0-0.5,0.1-0.7,0.2c-0.2,0.1-0.4,0.1-0.6,0.2c-0.2,0.1-0.5,0.2-0.7,0.2c-0.2,0.1-0.4,0.1-0.6,0.2c-0.2,0.1-0.4,0.2-0.6,0.3
			c-0.2,0.1-0.4,0.2-0.6,0.3c-0.2,0.1-0.4,0.2-0.6,0.3c-0.2,0.1-0.4,0.2-0.6,0.4c-0.2,0.1-0.4,0.3-0.6,0.5c-0.2,0.1-0.3,0.2-0.5,0.4
			c-0.4,0.3-0.7,0.6-1,0.9l-70,70c-5.5,5.5-5.5,14.3,0,19.8c5.5,5.5,14.3,5.5,19.8,0l46.1-46.1v106.2c0,7.7,6.3,14,14,14
			s14-6.3,14-14V680.3l46.1,46.1c2.7,2.7,6.3,4.1,9.9,4.1s7.2-1.4,9.9-4.1C429,721,429,712.1,423.5,706.7z"/>
		<path class="st9" d="M270.6,814.2h146c7.2,0,13,5.8,13,13l0,0c0,7.2-5.8,13-13,13h-146c-7.2,0-13-5.8-13-13l0,0
			C257.6,820,263.5,814.2,270.6,814.2z"/>
	</g>
	<g>
		<g class="st10">
			<path class="st2" d="M717.4,659.4h73.6c20.3,0,36.8,16.5,36.8,36.8v73.6c0,20.3-16.5,36.8-36.8,36.8h-73.6
				c-20.3,0-36.8-16.5-36.8-36.8v-73.6C680.6,675.9,697.1,659.4,717.4,659.4z"/>
		</g>
		<g>
			<path class="st0" d="M742.8,774.6c-2.9,0-5.7-1.2-7.8-3.2l-32-32c-4.3-4.3-4.3-11.3,0-15.6c4.3-4.3,11.3-4.3,15.6,0l23.4,23.4
				l44.3-54.5c3.8-4.7,10.8-5.4,15.5-1.6s5.4,10.8,1.6,15.5l-52,64c-2,2.4-4.9,3.9-8,4C743.2,774.6,743,774.6,742.8,774.6z"/>
		</g>
	</g>
</g>
<g id="Capa_2">
	<path class="st2" d="M2036.5,1080h-710.4c-101.6,0-184-82.4-184-184V184.6c0-101.6,82.4-184,184-184h710.4
		c101.6,0,184,82.4,184,184V896C2220.5,997.6,2138.1,1080,2036.5,1080z"/>
	<path class="st0" d="M1400.1,171.8h171.8c47.4,0,85.9,38.5,85.9,85.9v171.8c0,47.4-38.5,85.9-85.9,85.9h-171.8
		c-47.4,0-85.9-38.5-85.9-85.9V257.7C1314.2,210.3,1352.6,171.8,1400.1,171.8z"/>
	<g class="st10">
		<path class="st2" d="M1597.4,293h-223c-6.1,0-11-4.9-11-11s4.9-11,11-11h223c6.1,0,11,4.9,11,11S1603.4,293,1597.4,293z"/>
	</g>
	<g class="st10">
		<path class="st2" d="M1597.4,341h-223c-6.1,0-11-4.9-11-11s4.9-11,11-11h223c6.1,0,11,4.9,11,11S1603.4,341,1597.4,341z"/>
	</g>
	<g class="st10">
		<path class="st2" d="M1522.4,389h-148c-6.1,0-11-4.9-11-11s4.9-11,11-11h148c6.1,0,11,4.9,11,11S1528.4,389,1522.4,389z"/>
	</g>
	<path class="st2" d="M1384.4,415h60c5.5,0,10,4.5,10,10v16c0,5.5-4.5,10-10,10h-60c-5.5,0-10-4.5-10-10v-16
		C1374.4,419.5,1378.8,415,1384.4,415z"/>
	<text transform="matrix(1 0 0 1 1392.3568 440)" class="st0 st3 st4">PDF</text>
	<g class="st11">
		<path class="st0" d="M1964.6,528.5h-171.8c-54.5,0-98.9-44.4-98.9-98.9V257.7c0-54.5,44.4-98.9,98.9-98.9h171.8
			c54.5,0,98.9,44.4,98.9,98.9v171.8C2063.5,484.1,2019.2,528.5,1964.6,528.5z M1792.8,184.8c-40.2,0-72.9,32.7-72.9,72.9v171.8
			c0,40.2,32.7,72.9,72.9,72.9h171.8c40.2,0,72.9-32.7,72.9-72.9V257.7c0-40.2-32.7-72.9-72.9-72.9H1792.8z"/>
	</g>
	<path class="st12" d="M1783.9,256.1l15.6-15.6c3.9-3.9,10.2-3.9,14.1,0l113.1,113.1c3.9,3.9,3.9,10.2,0,14.1l-15.6,15.6
		c-3.9,3.9-10.2,3.9-14.1,0l-113.1-113.1C1780,266.4,1780,260,1783.9,256.1z"/>
	<polygon class="st12" points="1790.4,388 1814.4,364 1838.4,388 	"/>
	<path class="st13" d="M1869.6,234.6l18.4-18.4c3.1-3.1,8.2-3.1,11.3,0l9.9,9.9c3.1,3.1,3.1,8.2,0,11.3l-18.4,18.4
		c-3.1,3.1-8.2,3.1-11.3,0l-9.9-9.9C1866.4,242.8,1866.4,237.7,1869.6,234.6z"/>
	<g class="st11">
		<path class="st0" d="M1571.9,921.2h-171.8c-54.5,0-98.9-44.4-98.9-98.9V650.5c0-54.5,44.4-98.9,98.9-98.9h171.8
			c54.5,0,98.9,44.4,98.9,98.9v171.8C1670.8,876.8,1626.4,921.2,1571.9,921.2z M1400.1,577.5c-40.2,0-72.9,32.7-72.9,72.9v171.8
			c0,40.2,32.7,72.9,72.9,72.9h171.8c40.2,0,72.9-32.7,72.9-72.9V650.5c0-40.2-32.7-72.9-72.9-72.9H1400.1z"/>
	</g>
	<g>
		<path class="st14" d="M1565.9,706.7l-70-70c-0.3-0.3-0.7-0.6-1-0.9c-0.2-0.1-0.3-0.2-0.5-0.4c-0.2-0.2-0.4-0.3-0.6-0.5
			c-0.2-0.1-0.4-0.2-0.6-0.4c-0.2-0.1-0.4-0.2-0.6-0.3c-0.2-0.1-0.4-0.2-0.6-0.3c-0.2-0.1-0.4-0.2-0.6-0.3c-0.2-0.1-0.4-0.1-0.6-0.2
			c-0.2-0.1-0.5-0.2-0.7-0.2c-0.2-0.1-0.4-0.1-0.6-0.2c-0.2-0.1-0.5-0.1-0.7-0.2c-0.2,0-0.5-0.1-0.7-0.1c-0.2,0-0.4-0.1-0.7-0.1
			c-0.4,0-0.8-0.1-1.2-0.1c-0.1,0-0.1,0-0.2,0c-0.1,0-0.1,0-0.2,0c-0.4,0-0.8,0-1.2,0.1c-0.2,0-0.5,0.1-0.7,0.1
			c-0.2,0-0.5,0.1-0.7,0.1c-0.2,0-0.5,0.1-0.7,0.2c-0.2,0.1-0.4,0.1-0.6,0.2c-0.2,0.1-0.5,0.2-0.7,0.2c-0.2,0.1-0.4,0.1-0.6,0.2
			c-0.2,0.1-0.4,0.2-0.6,0.3c-0.2,0.1-0.4,0.2-0.6,0.3c-0.2,0.1-0.4,0.2-0.6,0.3c-0.2,0.1-0.4,0.2-0.6,0.4c-0.2,0.1-0.4,0.3-0.6,0.5
			c-0.2,0.1-0.3,0.2-0.5,0.4c-0.4,0.3-0.7,0.6-1,0.9l-70,70c-5.5,5.5-5.5,14.3,0,19.8c5.5,5.5,14.3,5.5,19.8,0l46.1-46.1v106.2
			c0,7.7,6.3,14,14,14s14-6.3,14-14V680.3l46.1,46.1c2.7,2.7,6.3,4.1,9.9,4.1s7.2-1.4,9.9-4.1C1571.4,721,1571.4,712.1,1565.9,706.7
			z"/>
		<path class="st15" d="M1413,814.2h146c7.2,0,13,5.8,13,13l0,0c0,7.2-5.8,13-13,13h-146c-7.2,0-13-5.8-13-13l0,0
			C1400,820,1405.8,814.2,1413,814.2z"/>
	</g>
	<g>
		<g>
			<path class="st0" d="M1859.8,659.4h73.6c20.3,0,36.8,16.5,36.8,36.8v73.6c0,20.3-16.5,36.8-36.8,36.8h-73.6
				c-20.3,0-36.8-16.5-36.8-36.8v-73.6C1823,675.9,1839.5,659.4,1859.8,659.4z"/>
		</g>
		<g class="st10">
			<path class="st2" d="M1885.2,774.6c-2.9,0-5.7-1.2-7.8-3.2l-32-32c-4.3-4.3-4.3-11.3,0-15.6c4.3-4.3,11.3-4.3,15.6,0l23.4,23.4
				l44.3-54.5c3.8-4.7,10.8-5.4,15.5-1.6c4.7,3.8,5.4,10.8,1.6,15.5l-52,64c-2,2.4-4.9,3.9-8,4
				C1885.5,774.6,1885.3,774.6,1885.2,774.6z"/>
		</g>
	</g>
</g>
</svg>
